<?xml version="1.0" encoding="UTF-8" standalone="no"?>
<!DOCTYPE svg PUBLIC "-//W3C//DTD SVG 1.1//EN" "http://www.w3.org/Graphics/SVG/1.1/DTD/svg11.dtd">
<svg width="100%" height="100%" viewBox="0 0 3546 649" version="1.1" xmlns="http://www.w3.org/2000/svg" xmlns:xlink="http://www.w3.org/1999/xlink" xml:space="preserve" xmlns:serif="http://www.serif.com/" style="fill-rule:evenodd;clip-rule:evenodd;stroke-linejoin:round;stroke-miterlimit:2;">
    <path d="M1034.16,565.644l-0.001,-125.691l190.684,-0l-0,-73.896l-190.684,-0l0,-124.375l206.521,-0l0,-74.554l-216.533,-0c-2.438,-0.092 -5.421,-0.163 -8.858,-0.163c-54.684,0 -64.279,17.467 -64.279,71.021l-0,88.046c-0,43.658 -14.551,68.575 -39.563,76.437c-0.475,0.15 -0.475,0.759 0,0.904c25.012,7.867 39.563,32.784 39.563,76.442l-0,88.042c-0,52.646 8.824,70.379 61.608,70.966l-0,0.059l232.679,-0l0,-73.238l-211.138,0Z" style="fill:#ffffff;fill-rule:nonzero;"/>
    <path d="M1410.61,241.683l-118.104,-0l-0,-74.558l319.833,-0l15.75,74.558l-133.683,-0l-0,397.2l-83.796,-0l-0,-397.2Z" style="fill:#ffffff;fill-rule:nonzero;"/>
    <path d="M2142.7,638.883l-110.187,-0l-60.042,-277.775c-11.879,-56.746 -13.858,-69.279 -22.433,-122.721l-1.321,0c-8.575,53.442 -11.879,64.658 -24.413,122.721l-60.041,277.775l-115.463,-0l-99.633,-471.758l88.412,-0l50.146,272.5c9.896,54.762 13.2,64 20.454,119.425l1.979,-0c9.238,-54.767 11.217,-64.663 23.755,-118.767l61.362,-273.158l110.846,-0l59.379,269.858c11.875,54.104 15.179,73.9 22.433,122.067l1.321,-0c5.938,-48.167 11.217,-67.3 21.775,-122.725l52.125,-269.2l81.809,-0l-102.263,471.758Z" style="fill:#ffffff;fill-rule:nonzero;"/>
    <path d="M2342.22,402.674c-0,98.971 56.741,173.529 150.433,173.529c93.692,0 151.096,-73.9 151.096,-173.529c-0,-100.95 -56.742,-172.866 -151.758,-172.866c-93.688,-0 -149.771,73.237 -149.771,172.866m388.621,0.663c-0,142.512 -95.009,244.783 -237.525,244.783c-141.2,0 -237.53,-102.271 -237.53,-244.783c0,-142.521 96.988,-245.446 236.867,-245.446c140.533,-0 238.188,102.267 238.188,245.446" style="fill:#ffffff;fill-rule:nonzero;"/>
    <path d="M2863.04,384.201l68.621,-0c61.358,-0 100.287,-21.113 100.287,-73.238c0,-53.445 -38.929,-71.92 -100.287,-71.92l-68.621,-0l-0,145.158Zm-83.796,-217.075l156.375,-0c47.5,-0 89.729,3.958 124.038,27.054c36.287,24.408 56.083,63.338 56.083,111.504c-0,83.796 -54.104,125.363 -112.825,139.217l118.104,193.983l-95.671,0l-108.867,-183.425l-53.441,0l-0,183.425l-83.796,0l-0,-471.758Z" style="fill:#ffffff;fill-rule:nonzero;"/>
    <path d="M3177.87,167.126l83.796,0l0,211.138l58.058,-71.263c38.934,-47.504 78.517,-91.708 118.105,-139.875l101.612,0l-190.683,216.413l196.621,255.346l-102.267,-0l-131.963,-173.53l-49.483,-65.32l0,238.85l-83.796,-0l0,-471.759Z" style="fill:#ffffff;fill-rule:nonzero;"/>
    <path d="M853.168,402.821c18.754,-8.987 31.192,-32.637 32.833,-63.683l0,-103.921c0,-36.654 4.554,-58.771 24.925,-67.679c0.288,-0.129 0.229,-0.529 -0.087,-0.529l-104.379,0.116c-0.163,0 -0.292,0.13 -0.292,0.292l-0,232.617c-0,45.529 0.658,97.654 0.658,124.704l-0.658,0.658c-12.538,-21.775 -35.629,-60.041 -51.467,-87.754l-156.946,-270.371c-0.054,-0.091 -0.15,-0.146 -0.254,-0.146l-102.466,0c-0.163,0 -0.292,0.134 -0.292,0.292l-0,471.175c-0,0.158 0.129,0.292 0.292,0.292l81.229,-0c0.162,-0 0.291,-0.134 0.291,-0.292l0,-204.246c0,-41.571 -0.658,-127.341 -0.658,-153.075l0.658,0c7.259,13.196 29.692,50.146 58.063,98.971l151.671,258.496c0.054,0.092 0.15,0.146 0.254,0.146l15.346,-0l4.571,-0.117l104.379,0.117c0.316,-0 0.375,-0.404 0.087,-0.529c-20.371,-8.909 -24.925,-31.025 -24.925,-67.68l0,-104.05c-1.65,-31.183 -13.937,-54.883 -32.833,-63.804" style="fill:#ffffff;fill-rule:nonzero;"/>
    <path d="M121.296,167.125l-0,74.558l123.671,0l-0,397.2l83.796,0l-0,-397.2l118.108,0l-0,-74.558l-325.575,-0Z" style="fill:url(#_Linear1);fill-rule:nonzero;"/>
    <path d="M83.796,167.125l-83.796,-0l0,471.758l83.796,0l-0,-471.758Z" style="fill:url(#_Linear2);fill-rule:nonzero;"/>
    <path d="M0,41.74c0,23.036 18.704,41.739 41.742,41.739c23.038,0 41.741,-18.703 41.741,-41.739c0,-23.037 -18.703,-41.74 -41.741,-41.74c-23.038,-0 -41.742,18.703 -41.742,41.74Z" style="fill:url(#_Linear3);"/>
    <defs>
        <linearGradient id="_Linear1" x1="0" y1="0" x2="1" y2="0" gradientUnits="userSpaceOnUse" gradientTransform="matrix(417.511,-74.6542,74.6542,417.511,-39.2395,450.258)"><stop offset="0" style="stop-color:#f37574;stop-opacity:1"/><stop offset="0.15" style="stop-color:#f37574;stop-opacity:1"/><stop offset="0.51" style="stop-color:#90268d;stop-opacity:1"/><stop offset="1" style="stop-color:#f9af40;stop-opacity:1"/></linearGradient>
        <linearGradient id="_Linear2" x1="0" y1="0" x2="1" y2="0" gradientUnits="userSpaceOnUse" gradientTransform="matrix(417.511,-74.6542,74.6542,417.511,-40.3475,417.71)"><stop offset="0" style="stop-color:#f37574;stop-opacity:1"/><stop offset="0.11" style="stop-color:#f37574;stop-opacity:1"/><stop offset="0.51" style="stop-color:#90268d;stop-opacity:1"/><stop offset="1" style="stop-color:#f9af40;stop-opacity:1"/></linearGradient>
        <linearGradient id="_Linear3" x1="0" y1="0" x2="1" y2="0" gradientUnits="userSpaceOnUse" gradientTransform="matrix(417.511,-74.6542,74.6542,417.511,-102.948,67.6106)"><stop offset="0" style="stop-color:#f37574;stop-opacity:1"/><stop offset="0.24" style="stop-color:#f37574;stop-opacity:1"/><stop offset="0.59" style="stop-color:#90268d;stop-opacity:1"/><stop offset="1" style="stop-color:#f9af40;stop-opacity:1"/></linearGradient>
    </defs>
</svg>
